# xmcd CD database file
#
# Track frame offsets:
#	150
#	19723
#	31815
#	52315
#	71755
#	87443
#	100725
#	121148
#	135008
#	157435
#	174000
#	190133
#	206790
#
# Disc length: 2948 seconds
#
# Revision: 0
# Processed by: cddbd v1.5.2PL0 Copyright (c) Steve Scherf et al.
# Submitted via: CDex 1.51
#
DISCID=ad0b820d
DTITLE=Clare Teal - Get Happy
DYEAR=2008
DGENRE=Jazz
TTITLE0=All For Love
TTITLE1=Ger Happy
TTITLE2=Love hurts
TTITLE3=Begin The Beguine
TTITLE4=Cheek to Cheek
TTITLE5=Get On It Sam
TTITLE6=The very Thought Of You
TTITLE7=Breaking Up is Hard To Do
TTITLE8=Moondance
TTITLE9=Love For Sale
TTITLE10=High Love
TTITLE11=Time After Time
TTITLE12=All The Things You Are
EXTD=YEAR: 2008
EXTT0=
EXTT1=
EXTT2=
EXTT3=
EXTT4=
EXTT5=
EXTT6=
EXTT7=
EXTT8=
EXTT9=
EXTT10=
EXTT11=
EXTT12=
PLAYORDER=
